<svg xmlns="http://www.w3.org/2000/svg" width="79.503" height="60.658" viewBox="0 0 79.503 60.658">
  <path id="Tracé_1" data-name="Tracé 1" d="M647.781,303.89h10.7v-.424q0-8.867,0-17.734a7.187,7.187,0,0,1,1.016-3.792,6.63,6.63,0,0,1,8.3-2.692,6.443,6.443,0,0,1,4.106,6.229c.039,5.99.011,11.981.011,17.972v.443H682.6c.007-.109.019-.2.019-.286q0-9.054,0-18.108c0-.453-.009-.909-.052-1.36a17.348,17.348,0,0,0-3.447-9.034,17.174,17.174,0,0,0-12.474-7.038,16.765,16.765,0,0,0-7.8,1.142c-.1.04-.209.069-.363.118,0-.179,0-.312,0-.446q0-7.693,0-15.385a2.754,2.754,0,0,0-.468-1.606,7.122,7.122,0,0,0-.89-1.113,13.362,13.362,0,0,0-8.9-3.714c-.438-.023-.44-.015-.44.442q0,13.7.006,27.4a1.584,1.584,0,0,0,.155.647c.6,1.284,1.2,2.568,1.841,3.833.177.351.1.517-.177.746q-4.422,3.649-8.825,7.322A13.7,13.7,0,0,1,633,290.7a12.868,12.868,0,0,1-9.244-2.746c-3.289-2.587-6.461-5.321-9.688-7.985-.167-.138-.139-.25-.065-.4.529-1.1,1.046-2.215,1.585-3.314a76.588,76.588,0,0,1,3.945-7.452.473.473,0,0,0,.014-.335c-.127-.469-.3-.926-.4-1.4a8.263,8.263,0,0,1,.034-3.213,20.865,20.865,0,0,1,.563-2.377,1.058,1.058,0,0,1,1.536-.768,5.924,5.924,0,0,1,1.074.5,22.173,22.173,0,0,1,3.923,3.087,1.364,1.364,0,0,0,1.185.425,51.374,51.374,0,0,1,9.379.029.563.563,0,0,0,.386-.131,14.737,14.737,0,0,0,2.677-3.2,16.927,16.927,0,0,0,2.429-8.537,26.973,26.973,0,0,0-1.386-9.2.74.74,0,0,0-.431-.395.513.513,0,0,0-.65.286,5.284,5.284,0,0,1-2.254,2.155,10.923,10.923,0,0,1-4.257,1.213c-1.3.114-2.606.111-3.907.2a26.86,26.86,0,0,0-12.775,4.153,27.945,27.945,0,0,0-13.45,22.206,27,27,0,0,0,2.192,13.125,28.379,28.379,0,0,0,41.239,12.921c.358-.224.714-.453,1.134-.721Z" transform="translate(-603.119 -243.255)" fill="#191919"/>
</svg>
